<mxfile host="app.diagrams.net" modified="2021-08-29T13:58:47.326Z" agent="5.0 (Windows NT 10.0; Win64; x64) AppleWebKit/537.36 (KHTML, like Gecko) Chrome/92.0.4515.159 Safari/537.36" etag="HY7db-m8gYvh17L8O1aj" version="15.0.3" type="github">
  <diagram id="i1LXj_qeINUx8grjb_YF" name="Page-1">
    <mxGraphModel dx="785" dy="485" grid="1" gridSize="10" guides="1" tooltips="1" connect="1" arrows="1" fold="1" page="1" pageScale="1" pageWidth="850" pageHeight="1100" math="0" shadow="0">
      <root>
        <mxCell id="0" />
        <mxCell id="1" parent="0" />
        <mxCell id="0gigB8OSHipGADYLx92w-1" value="Column" style="rounded=1;whiteSpace=wrap;html=1;fontSize=14;fillColor=#fff2cc;strokeColor=#d6b656;" vertex="1" parent="1">
          <mxGeometry x="140" y="120" width="140" height="60" as="geometry" />
        </mxCell>
        <mxCell id="0gigB8OSHipGADYLx92w-2" value="Box&lt;br style=&quot;font-size: 15px;&quot;&gt;(color: red)" style="rounded=1;whiteSpace=wrap;html=1;fillColor=#a20025;strokeColor=#6F0000;fontColor=#ffffff;fontSize=15;" vertex="1" parent="1">
          <mxGeometry x="200" y="210" width="110" height="60" as="geometry" />
        </mxCell>
        <mxCell id="0gigB8OSHipGADYLx92w-5" value="Box&lt;br style=&quot;font-size: 15px&quot;&gt;(color: green)" style="rounded=1;whiteSpace=wrap;html=1;fillColor=#60a917;strokeColor=#2D7600;fontColor=#ffffff;fontSize=15;" vertex="1" parent="1">
          <mxGeometry x="200" y="300" width="110" height="60" as="geometry" />
        </mxCell>
        <mxCell id="0gigB8OSHipGADYLx92w-6" value="Box&lt;br style=&quot;font-size: 15px&quot;&gt;(color: black)" style="rounded=1;whiteSpace=wrap;html=1;strokeColor=#6F0000;fontColor=#ffffff;fontSize=15;fillColor=#000000;" vertex="1" parent="1">
          <mxGeometry x="200" y="390" width="110" height="60" as="geometry" />
        </mxCell>
      </root>
    </mxGraphModel>
  </diagram>
</mxfile>
